<svg width="283" height="66" viewBox="0 0 283 66" fill="none" xmlns="http://www.w3.org/2000/svg">
<path d="M89.1365 27.2511C88.985 25.9064 88.36 24.8648 87.2615 24.1261C86.163 23.378 84.7804 23.004 83.1137 23.004C81.9206 23.004 80.8884 23.1934 80.0172 23.5722C79.1459 23.9415 78.4689 24.4528 77.9859 25.1062C77.5124 25.7502 77.2757 26.4841 77.2757 27.308C77.2757 27.9992 77.4367 28.5958 77.7586 29.0977C78.0901 29.5996 78.5209 30.021 79.0512 30.3619C79.591 30.6934 80.1687 30.9727 80.7842 31.2C81.3997 31.4178 81.9916 31.5977 82.5598 31.7398L85.4007 32.4784C86.3287 32.7057 87.2804 33.0134 88.2558 33.4017C89.2312 33.79 90.1355 34.3013 90.9689 34.9358C91.8022 35.5703 92.4745 36.3562 92.9859 37.2937C93.5067 38.2312 93.7672 39.3534 93.7672 40.6602C93.7672 42.308 93.341 43.771 92.4887 45.0494C91.6459 46.3278 90.4196 47.3364 88.8098 48.075C87.2094 48.8136 85.2728 49.183 83.0001 49.183C80.8221 49.183 78.9376 48.8373 77.3467 48.146C75.7558 47.4547 74.5105 46.4746 73.6109 45.2057C72.7113 43.9273 72.2141 42.4121 72.1194 40.6602H76.5228C76.6081 41.7114 76.949 42.5873 77.5456 43.2881C78.1516 43.9794 78.9234 44.4955 79.8609 44.8364C80.8079 45.1678 81.8448 45.3335 82.9717 45.3335C84.2122 45.3335 85.3155 45.1394 86.2814 44.7511C87.2567 44.3534 88.0238 43.8042 88.5825 43.1034C89.1412 42.3932 89.4206 41.5646 89.4206 40.6176C89.4206 39.7559 89.1744 39.0504 88.6819 38.5011C88.199 37.9519 87.5408 37.4973 86.7075 37.1375C85.8836 36.7776 84.9509 36.4604 83.9092 36.1858L80.4717 35.2483C78.1422 34.6138 76.2956 33.6811 74.9319 32.45C73.5778 31.2189 72.9007 29.5901 72.9007 27.5636C72.9007 25.8875 73.3552 24.4244 74.2643 23.1744C75.1734 21.9244 76.4045 20.9538 77.9575 20.2625C79.5105 19.5617 81.2624 19.2114 83.2132 19.2114C85.1829 19.2114 86.9206 19.557 88.4262 20.2483C89.9414 20.9396 91.1346 21.8913 92.0058 23.1034C92.877 24.3061 93.3316 25.6886 93.3694 27.2511H89.1365ZM102.918 35.7455V48.7H98.6713V19.6091H102.862V30.433H103.132C103.643 29.2587 104.424 28.3259 105.475 27.6347C106.526 26.9434 107.899 26.5977 109.595 26.5977C111.091 26.5977 112.398 26.9055 113.515 27.521C114.642 28.1365 115.513 29.0551 116.129 30.2767C116.754 31.4888 117.066 33.004 117.066 34.8222V48.7H112.819V35.3335C112.819 33.7331 112.407 32.4926 111.583 31.6119C110.759 30.7218 109.614 30.2767 108.146 30.2767C107.142 30.2767 106.242 30.4898 105.447 30.9159C104.661 31.342 104.041 31.967 103.586 32.7909C103.141 33.6053 102.918 34.5901 102.918 35.7455ZM129.083 49.183C127.701 49.183 126.451 48.9273 125.333 48.4159C124.216 47.8951 123.33 47.1422 122.677 46.1574C122.033 45.1725 121.711 43.9651 121.711 42.5352C121.711 41.3042 121.948 40.2909 122.421 39.4955C122.895 38.7 123.534 38.0703 124.339 37.6062C125.144 37.1422 126.043 36.7919 127.038 36.5551C128.032 36.3184 129.045 36.1384 130.078 36.0153C131.384 35.8638 132.445 35.7407 133.259 35.646C134.074 35.5419 134.666 35.3761 135.035 35.1489C135.404 34.9216 135.589 34.5523 135.589 34.0409V33.9415C135.589 32.7009 135.239 31.7398 134.538 31.058C133.846 30.3761 132.814 30.0352 131.441 30.0352C130.011 30.0352 128.884 30.3525 128.06 30.9869C127.246 31.6119 126.683 32.308 126.37 33.075L122.379 32.1659C122.852 30.8401 123.543 29.7701 124.453 28.9557C125.371 28.1318 126.427 27.5352 127.62 27.1659C128.813 26.7871 130.068 26.5977 131.384 26.5977C132.256 26.5977 133.179 26.7019 134.154 26.9102C135.139 27.1091 136.058 27.4784 136.91 28.0182C137.772 28.558 138.477 29.3297 139.026 30.3335C139.576 31.3278 139.85 32.6205 139.85 34.2114V48.7H135.703V45.717H135.532C135.257 46.2663 134.846 46.8061 134.296 47.3364C133.747 47.8667 133.042 48.307 132.18 48.6574C131.318 49.0078 130.286 49.183 129.083 49.183ZM130.007 45.7739C131.181 45.7739 132.185 45.5419 133.018 45.0778C133.861 44.6138 134.5 44.0078 134.935 43.2597C135.381 42.5021 135.603 41.6924 135.603 40.8307V38.0182C135.452 38.1697 135.158 38.3117 134.722 38.4443C134.296 38.5674 133.809 38.6763 133.259 38.771C132.71 38.8562 132.175 38.9367 131.654 39.0125C131.133 39.0788 130.698 39.1356 130.347 39.183C129.524 39.2871 128.771 39.4623 128.089 39.7085C127.417 39.9547 126.877 40.3098 126.47 40.7739C126.072 41.2284 125.873 41.8345 125.873 42.592C125.873 43.6432 126.261 44.4386 127.038 44.9784C127.814 45.5087 128.804 45.7739 130.007 45.7739ZM145.507 56.8818V26.8818H149.655V30.4187H150.01C150.256 29.9642 150.611 29.4386 151.075 28.842C151.539 28.2455 152.183 27.7246 153.007 27.2795C153.831 26.825 154.92 26.5977 156.274 26.5977C158.036 26.5977 159.608 27.0428 160.99 27.933C162.373 28.8231 163.457 30.1062 164.243 31.7824C165.038 33.4585 165.436 35.4756 165.436 37.8335C165.436 40.1915 165.043 42.2133 164.257 43.8989C163.471 45.575 162.392 46.8676 161.019 47.7767C159.645 48.6763 158.078 49.1261 156.317 49.1261C154.991 49.1261 153.907 48.9036 153.064 48.4585C152.231 48.0134 151.577 47.4926 151.104 46.896C150.63 46.2994 150.266 45.7691 150.01 45.3051H149.754V56.8818H145.507ZM149.669 37.7909C149.669 39.325 149.892 40.6697 150.337 41.825C150.782 42.9803 151.426 43.8847 152.269 44.5381C153.111 45.182 154.144 45.504 155.365 45.504C156.634 45.504 157.695 45.1678 158.547 44.4955C159.399 43.8136 160.043 42.8903 160.479 41.7256C160.924 40.5608 161.146 39.2492 161.146 37.7909C161.146 36.3515 160.929 35.0589 160.493 33.9131C160.067 32.7672 159.423 31.8629 158.561 31.2C157.709 30.5371 156.644 30.2057 155.365 30.2057C154.134 30.2057 153.092 30.5229 152.24 31.1574C151.397 31.7919 150.758 32.6773 150.323 33.8136C149.887 34.95 149.669 36.2758 149.669 37.7909ZM179.598 49.1403C177.449 49.1403 175.597 48.6811 174.044 47.7625C172.501 46.8345 171.307 45.5324 170.465 43.8562C169.631 42.1706 169.215 40.1962 169.215 37.933C169.215 35.6981 169.631 33.7284 170.465 32.0239C171.307 30.3193 172.482 28.9888 173.987 28.0324C175.502 27.0759 177.273 26.5977 179.3 26.5977C180.531 26.5977 181.724 26.8013 182.879 27.2085C184.035 27.6157 185.072 28.2549 185.99 29.1261C186.909 29.9973 187.633 31.129 188.163 32.521C188.694 33.9036 188.959 35.5845 188.959 37.5636V39.0693H171.615V35.8875H184.797C184.797 34.7701 184.57 33.7805 184.115 32.9187C183.661 32.0475 183.021 31.361 182.198 30.8591C181.383 30.3572 180.427 30.1062 179.328 30.1062C178.135 30.1062 177.093 30.3998 176.203 30.9869C175.323 31.5646 174.641 32.3222 174.158 33.2597C173.684 34.1877 173.448 35.1962 173.448 36.2852V38.771C173.448 40.2294 173.703 41.4699 174.215 42.4926C174.735 43.5153 175.46 44.2966 176.388 44.8364C177.316 45.3667 178.4 45.6318 179.641 45.6318C180.446 45.6318 181.18 45.5182 181.842 45.2909C182.505 45.0542 183.078 44.7038 183.561 44.2398C184.044 43.7758 184.413 43.2028 184.669 42.521L188.689 43.2455C188.367 44.4292 187.789 45.4661 186.956 46.3562C186.132 47.2369 185.095 47.9235 183.845 48.4159C182.605 48.8989 181.189 49.1403 179.598 49.1403ZM194.012 19.6091H199.339L208.6 42.2227H208.941L218.203 19.6091H223.529V48.7H219.353V27.6489H219.083L210.504 48.6574H207.038L198.458 27.6347H198.188V48.7H194.012V19.6091ZM238.973 49.1403C236.824 49.1403 234.972 48.6811 233.419 47.7625C231.876 46.8345 230.682 45.5324 229.84 43.8562C229.006 42.1706 228.59 40.1962 228.59 37.933C228.59 35.6981 229.006 33.7284 229.84 32.0239C230.682 30.3193 231.857 28.9888 233.362 28.0324C234.877 27.0759 236.648 26.5977 238.675 26.5977C239.906 26.5977 241.099 26.8013 242.254 27.2085C243.41 27.6157 244.447 28.2549 245.365 29.1261C246.284 29.9973 247.008 31.129 247.538 32.521C248.069 33.9036 248.334 35.5845 248.334 37.5636V39.0693H230.99V35.8875H244.172C244.172 34.7701 243.945 33.7805 243.49 32.9187C243.036 32.0475 242.396 31.361 241.573 30.8591C240.758 30.3572 239.802 30.1062 238.703 30.1062C237.51 30.1062 236.468 30.3998 235.578 30.9869C234.698 31.5646 234.016 32.3222 233.533 33.2597C233.059 34.1877 232.823 35.1962 232.823 36.2852V38.771C232.823 40.2294 233.078 41.4699 233.59 42.4926C234.11 43.5153 234.835 44.2966 235.763 44.8364C236.691 45.3667 237.775 45.6318 239.016 45.6318C239.821 45.6318 240.555 45.5182 241.217 45.2909C241.88 45.0542 242.453 44.7038 242.936 44.2398C243.419 43.7758 243.788 43.2028 244.044 42.521L248.064 43.2455C247.742 44.4292 247.164 45.4661 246.331 46.3562C245.507 47.2369 244.47 47.9235 243.22 48.4159C241.98 48.8989 240.564 49.1403 238.973 49.1403Z" fill="black"/>
<path d="M44.8307 38.6253L53.6955 29.7605C53.6955 23.6817 52.1758 17.8563 49.3897 12.7907L28.7474 31.9133V63.7H32.6732C46.477 63.7 57.748 52.5557 57.748 38.6253H44.8307Z" fill="#CEE8FF"/>
<path d="M12.9173 25.0748L4.05249 33.9396C4.05249 40.0183 5.57217 45.8437 8.35825 50.9093L29.0006 31.7867V0H25.0748C11.271 0 0 11.1443 0 25.0748H12.9173Z" fill="#FEF180"/>
</svg>
